<svg width="17" height="17" viewBox="0 0 17 17" fill="none" xmlns="http://www.w3.org/2000/svg">
<path d="M12.1951 11.1106C12.6339 10.4053 12.8761 9.59558 12.8967 8.7652C12.9173 7.93483 12.7155 7.11405 12.3121 6.38791C11.9088 5.66176 11.3187 5.05667 10.6028 4.63531C9.88702 4.21395 9.07155 3.99166 8.24092 3.99146L2.60342 3.99187C2.36437 3.99138 2.12758 4.03811 1.90664 4.12939C1.6857 4.22067 1.48497 4.35469 1.31598 4.52376C1.14698 4.69284 1.01305 4.89363 0.921871 5.11461C0.830694 5.33559 0.78407 5.5724 0.784674 5.81145V14.2873C0.784069 14.5263 0.830686 14.763 0.921847 14.9839C1.01301 15.2048 1.14692 15.4055 1.31588 15.5745C1.48484 15.7435 1.68553 15.8775 1.90641 15.9687C2.1273 16.0599 2.36403 16.1066 2.60301 16.106H11.0788C11.3179 16.1067 11.5548 16.0601 11.7758 15.969C11.9968 15.8778 12.1977 15.7439 12.3668 15.5749C12.5359 15.4059 12.67 15.2051 12.7613 14.9842C12.8526 14.7632 12.8993 14.5264 12.8988 14.2873" stroke="#FAFF00" stroke-linecap="round" stroke-linejoin="round"/>
<path d="M7.66357 3.99172V2.6438H9.43941V4.14797M10.9436 4.85547L12.1361 3.66297L13.2173 4.75463L12.0248 5.94713M12.8994 9.21672H14.2477V7.44088H12.7436" stroke="#FAFF00" stroke-linecap="round" stroke-linejoin="round"/>
<path d="M12.0349 5.93666L13.2274 4.74416L12.1357 3.66333L10.9432 4.85541M8.74614 12.8012C7.91555 12.801 7.10013 12.5786 6.38436 12.1572C5.6686 11.7358 5.07852 11.1307 4.67525 10.4046C4.27198 9.67848 4.07019 8.85774 4.09079 8.0274C4.11139 7.19706 4.35362 6.38732 4.79239 5.68208" stroke="#FAFF00" stroke-linecap="round" stroke-linejoin="round"/>
<path d="M8.74532 12.8009H14.3828C14.6219 12.8014 14.8587 12.7547 15.0796 12.6634C15.3005 12.5721 15.5013 12.4381 15.6703 12.269C15.8393 12.1 15.9732 11.8992 16.0644 11.6782C16.1556 11.4572 16.2022 11.2204 16.2016 10.9814V2.50552C16.2022 2.26655 16.1556 2.02981 16.0644 1.8089C15.9732 1.58799 15.8393 1.38727 15.6704 1.21827C15.5014 1.04927 15.3007 0.915317 15.0798 0.824106C14.8589 0.732895 14.6222 0.686224 14.3832 0.686773H5.90699C5.66794 0.686169 5.43112 0.732794 5.21014 0.823971C4.98916 0.915147 4.78837 1.04908 4.6193 1.21807C4.45022 1.38707 4.3162 1.5878 4.22492 1.80874C4.13365 2.02968 4.08691 2.26647 4.08741 2.50552" stroke="#FAFF00" stroke-linecap="round" stroke-linejoin="round"/>
<path d="M9.32545 12.8004V14.1484H7.54962V12.6442M6.04545 11.9367L4.85337 13.1292L3.77212 12.0371L4.96462 10.8446M4.08962 7.57544H2.7417V9.35127H4.24587" stroke="#FAFF00" stroke-linecap="round" stroke-linejoin="round"/>
<path d="M4.95373 10.8547L3.76123 12.0472L4.8529 13.1285L6.0454 11.936" stroke="#FAFF00" stroke-linecap="round" stroke-linejoin="round"/>
<path d="M8.49404 10.1211C9.44673 10.1211 10.219 9.34883 10.219 8.39614C10.219 7.44345 9.44673 6.67114 8.49404 6.67114C7.54135 6.67114 6.76904 7.44345 6.76904 8.39614C6.76904 9.34883 7.54135 10.1211 8.49404 10.1211Z" stroke="#FAFF00" stroke-linecap="round" stroke-linejoin="round"/>
</svg>
