<svg width="14" height="16" viewBox="0 0 14 16" fill="none" xmlns="http://www.w3.org/2000/svg">
<path d="M11.6667 5.94588C11.4457 5.94588 11.2337 5.85808 11.0774 5.7018C10.9211 5.54552 10.8333 5.33356 10.8333 5.11255C10.8333 4.89153 10.9211 4.67957 11.0774 4.52329C11.2337 4.36701 11.4457 4.27922 11.6667 4.27922C11.8877 4.27922 12.0996 4.36701 12.2559 4.52329C12.4122 4.67957 12.5 4.89153 12.5 5.11255C12.5 5.33356 12.4122 5.54552 12.2559 5.7018C12.0996 5.85808 11.8877 5.94588 11.6667 5.94588ZM6.66667 5.94588H1.66667V1.77922H6.66667M13.1417 3.63755L13.15 3.62922L10.05 0.529215L9.16667 1.41255L10.925 3.17088C10.1417 3.44588 9.58333 4.22088 9.58333 5.11255C9.58333 5.38614 9.63722 5.65704 9.74192 5.90981C9.84661 6.16257 10.0001 6.39223 10.1935 6.58569C10.5842 6.97639 11.1141 7.19588 11.6667 7.19588C11.9667 7.19588 12.2417 7.12922 12.5 7.02088V13.0292C12.5 13.2502 12.4122 13.4622 12.2559 13.6185C12.0996 13.7748 11.8877 13.8625 11.6667 13.8625C11.4457 13.8625 11.2337 13.7748 11.0774 13.6185C10.9211 13.4622 10.8333 13.2502 10.8333 13.0292V9.27921C10.8333 8.83719 10.6577 8.41327 10.3452 8.1007C10.0326 7.78814 9.60869 7.61255 9.16667 7.61255H8.33333V1.77922C8.33333 1.33719 8.15774 0.913265 7.84518 0.600704C7.53262 0.288143 7.10869 0.112549 6.66667 0.112549H1.66667C0.741667 0.112549 0 0.854215 0 1.77922V15.1125H8.33333V8.86255H9.58333V13.0292C9.58333 13.5817 9.80283 14.1117 10.1935 14.5024C10.5842 14.8931 11.1141 15.1125 11.6667 15.1125C11.9403 15.1125 12.2112 15.0587 12.4639 14.954C12.7167 14.8493 12.9464 14.6958 13.1398 14.5024C13.3333 14.3089 13.4867 14.0792 13.5914 13.8265C13.6961 13.5737 13.75 13.3028 13.75 13.0292V5.11255C13.75 4.53755 13.5167 4.01255 13.1417 3.63755Z" fill="#FAFF00"/>
</svg>
