<svg width="21" height="21" viewBox="0 0 21 21" fill="none" xmlns="http://www.w3.org/2000/svg">
<path d="M4.36377 6.16789V18.5012H12.2388V8.91789H4.36377M3.36377 18.5012H13.1971M4.36377 4.62622V2.25122H7.40544" stroke="#FAFF00" stroke-linecap="round" stroke-linejoin="round"/>
<path d="M8.78027 2.25122H12.2386V8.95955" stroke="#FAFF00" stroke-linecap="round" stroke-linejoin="round"/>
<path d="M12.2388 8.91785C12.4471 8.54285 12.8221 8.08451 13.3221 8.08451C13.9054 8.08451 14.5304 8.37618 14.5304 9.58451C14.5304 10.0428 14.5304 13.1262 14.6554 13.7095C14.7804 14.2928 15.1138 15.3345 16.4054 15.3345C17.7804 15.3345 18.2804 13.6262 18.1971 12.7928C18.013 11.2661 17.7488 9.75014 17.4054 8.25118C17.1138 6.83451 15.9054 5.37618 15.7804 4.62618C15.5622 3.87785 15.1273 3.21091 14.5304 2.70951C14.2971 2.5426 14.0454 2.40281 13.7804 2.29285" stroke="#FAFF00" stroke-linecap="round" stroke-linejoin="round"/>
</svg>
